<svg xmlns="http://www.w3.org/2000/svg" width="847" height="77" fill="none" viewBox="0 0 847 77"><path fill="#fff" d="M15.2598 30.0039V47.7773C15.2598 52.8555 17.0827 56.9245 20.7285 59.9844C23.2676 62.0677 26.0345 63.1094 29.0293 63.1094H38.9902C43.0267 63.1094 46.4447 61.7422 49.2441 59.0078C49.6348 58.6172 49.9603 58.2591 50.2207 57.9336L63.209 67.8945C59.5632 71.3451 53.9316 73.7865 46.3145 75.2188C43.6452 75.7396 41.2038 76 38.9902 76H29.0293C20.9564 76 14.0879 73.1354 8.42383 67.4062C3.02018 61.9375 0.318359 55.3945 0.318359 47.7773V30.0039C0.318359 22.0612 3.18294 15.3229 8.91211 9.78906C14.5762 4.45052 21.2819 1.78125 29.0293 1.78125H38.9902C45.3053 1.78125 51.4251 3.18099 57.3496 5.98047C59.8236 7.21745 61.7767 8.51953 63.209 9.88672L50.2207 19.9453C47.9421 17.0156 44.7845 15.2904 40.748 14.7695C40.097 14.7044 39.5111 14.6719 38.9902 14.6719H29.0293C24.5371 14.6719 20.9238 16.6576 18.1895 20.6289C16.2363 23.4284 15.2598 26.5534 15.2598 30.0039ZM73.5605 1.78125H88.5996V47.7773C88.5996 52.9206 90.4551 57.0221 94.166 60.082C96.5749 62.1003 99.2767 63.1094 102.271 63.1094H110.279C114.771 63.1094 118.385 61.1237 121.119 57.1523C123.072 54.3529 124.049 51.2279 124.049 47.7773V1.78125H138.99V47.7773C138.99 55.7201 136.126 62.4583 130.396 67.9922C124.732 73.3307 118.027 76 110.279 76H102.271C94.1986 76 87.3301 73.1354 81.666 67.4062C76.2624 61.9375 73.5605 55.3945 73.5605 47.7773V1.78125ZM149.83 22.9727C149.83 16.9831 152.63 11.9049 158.229 7.73828C163.632 3.76693 170.077 1.78125 177.564 1.78125H187.525C193.58 1.78125 199.439 3.18099 205.104 5.98047C207.447 7.21745 209.335 8.51953 210.768 9.88672L197.682 19.9453C195.533 16.9505 192.604 15.2253 188.893 14.7695C188.437 14.7044 187.981 14.6719 187.525 14.6719H177.564C172.682 14.6719 169.003 16.0391 166.529 18.7734C165.423 20.1406 164.869 21.5404 164.869 22.9727C164.869 25.5117 167.571 27.6927 172.975 29.5156C174.667 30.1016 177.532 30.9154 181.568 31.957C191.334 34.4961 198.17 36.9701 202.076 39.3789C208.456 43.2852 211.679 48.4284 211.744 54.8086C211.744 60.7331 208.88 65.7786 203.15 69.9453C197.486 73.9818 190.781 76 183.033 76H173.072C166.757 76 160.637 74.6003 154.713 71.8008C152.239 70.5638 150.286 69.2617 148.854 67.8945L161.744 57.9336C164.023 60.7982 167.213 62.4909 171.314 63.0117C171.965 63.0768 172.551 63.1094 173.072 63.1094H183.033C188.307 63.1094 192.278 61.7096 194.947 58.9102C196.119 57.6081 196.705 56.2409 196.705 54.8086C196.705 51.944 194.003 49.5677 188.6 47.6797C187.818 47.3542 183.098 46.0195 174.439 43.6758C164.479 41.0065 157.708 37.7839 154.127 34.0078C151.262 30.8828 149.83 27.2044 149.83 22.9727ZM254.713 76H239.674V14.8672C239.674 10.5052 241.562 7.02214 245.338 4.41797C247.877 2.66016 250.709 1.78125 253.834 1.78125H276.002V14.6719H254.713V76ZM242.506 1.78125L234.498 14.6719H219.752V1.78125H242.506ZM321.705 76.9766H311.744C303.671 76.9766 296.803 74.112 291.139 68.3828C285.735 62.9141 283.033 56.3711 283.033 48.7539V29.0273C283.033 21.0846 285.898 14.3464 291.627 8.8125C297.291 3.47396 303.997 0.804688 311.744 0.804688H321.705C329.778 0.804688 336.646 3.66927 342.311 9.39844C347.714 14.8672 350.416 21.4102 350.416 29.0273V48.7539C350.416 56.6966 347.551 63.4349 341.822 68.9688C336.158 74.3073 329.452 76.9766 321.705 76.9766ZM311.744 64.0859H321.705C326.197 64.0859 329.811 62.0677 332.545 58.0312C334.433 55.2318 335.377 52.1393 335.377 48.7539V29.0273C335.377 23.8841 333.521 19.7826 329.811 16.7227C327.402 14.7044 324.7 13.6953 321.705 13.6953H311.744C307.252 13.6953 303.639 15.681 300.904 19.6523C298.951 22.4518 297.975 25.5768 297.975 29.0273V48.7539C297.975 53.832 299.798 57.901 303.443 60.9609C305.982 63.0443 308.749 64.0859 311.744 64.0859ZM430.396 17.1133L413.795 65.1602H397.975L381.373 17.1133L375.709 76H359.693L366.529 14.1836C367.18 8.64974 369.785 4.77604 374.342 2.5625C376.23 1.71615 378.215 1.29297 380.299 1.29297C384.791 1.29297 388.209 3.01823 390.553 6.46875C391.139 7.3151 391.627 8.22656 392.018 9.20312L405.885 49.8281L419.752 9.20312C421.249 5.16667 424.146 2.66016 428.443 1.68359C429.485 1.42318 430.494 1.29297 431.471 1.29297C436.158 1.29297 439.837 3.11589 442.506 6.76172C444.003 8.91016 444.915 11.3841 445.24 14.1836L452.076 76H436.061L430.396 17.1133ZM477.662 45.7266V63.1094H515.943L522.975 76H476.783C472.031 76 468.222 74.2096 465.357 70.6289C463.535 68.2852 462.623 65.7135 462.623 62.9141V14.8672C462.623 10.5052 464.511 7.02214 468.287 4.41797C470.826 2.66016 473.658 1.78125 476.783 1.78125H522.975L515.943 14.6719H477.662V32.8359H512.916V45.7266H477.662ZM548.756 14.6719V76H533.814V14.8672C533.814 10.4401 535.702 6.92448 539.479 4.32031C542.018 2.6276 544.817 1.78125 547.877 1.78125H568.092C577.141 1.78125 584.4 4.48307 589.869 9.88672C594.492 14.5091 596.803 20.2057 596.803 26.9766V29.8086C596.803 38.2721 593.45 44.8477 586.744 49.5352C584.205 51.293 581.406 52.6276 578.346 53.5391L598.463 76H579.811L561.256 55.0039H549.732L557.74 42.1133H568.092C574.212 42.1133 578.346 39.9974 580.494 35.7656C581.34 34.0078 581.764 32.0221 581.764 29.8086V26.9766C581.764 21.1172 579.127 17.3086 573.854 15.5508C572.096 14.9648 570.175 14.6719 568.092 14.6719H548.756ZM666.92 76H658.619C652.304 76 646.184 74.6003 640.26 71.8008C637.786 70.5638 635.833 69.2617 634.4 67.8945L647.389 57.9336C649.667 60.7982 652.857 62.4909 656.959 63.0117C657.545 63.0768 658.098 63.1094 658.619 63.1094H666.92C673.105 63.1094 677.304 61.3516 679.518 57.8359C680.234 56.6641 680.592 55.4271 680.592 54.125C680.592 51 678.867 48.5586 675.416 46.8008C673.007 45.6289 670.175 45.043 666.92 45.043H648.658L656.666 32.0547H666.92C671.282 32.0547 674.244 30.362 675.807 26.9766C676.327 25.8047 676.588 24.6003 676.588 23.3633C676.588 19.9779 675.123 17.4714 672.193 15.8438C670.631 15.0625 668.873 14.6719 666.92 14.6719H658.619C654.713 14.6719 651.327 16.0391 648.463 18.7734C648.072 19.1641 647.714 19.5547 647.389 19.9453L634.4 9.88672C638.046 6.4362 643.678 3.99479 651.295 2.5625C653.964 2.04167 656.406 1.78125 658.619 1.78125H666.92C676.035 1.78125 682.805 4.77604 687.232 10.7656C689.837 14.2161 691.139 18.0898 691.139 22.3867C691.139 28.3112 688.893 33.2591 684.4 37.2305C684.14 37.4909 683.912 37.6862 683.717 37.8164C690.032 41.1367 693.743 45.8242 694.85 51.8789C695.045 52.9857 695.143 54.0599 695.143 55.1016C695.143 61.2214 692.506 66.2344 687.232 70.1406C682.024 74.0469 675.253 76 666.92 76ZM721.119 30.0039V35.1797C727.044 32.3802 733.294 30.9154 739.869 30.7852H744.85C755.201 30.7852 762.949 33.9753 768.092 40.3555C771.217 44.2617 772.779 48.6237 772.779 53.4414C772.779 59.8867 770.208 65.2578 765.064 69.5547C759.856 73.8516 753.118 76 744.85 76H734.889C726.816 76 719.947 73.1354 714.283 67.4062C708.88 61.9375 706.178 55.3945 706.178 47.7773V30.0039C706.178 22.0612 709.042 15.3229 714.771 9.78906C720.436 4.45052 727.141 1.78125 734.889 1.78125H744.85C751.165 1.78125 757.285 3.18099 763.209 5.98047C765.683 7.21745 767.636 8.51953 769.068 9.88672L756.08 19.9453C753.801 17.0156 750.644 15.2904 746.607 14.7695C745.956 14.7044 745.37 14.6719 744.85 14.6719H734.889C730.396 14.6719 726.783 16.6576 724.049 20.6289C722.096 23.4284 721.119 26.5534 721.119 30.0039ZM721.119 43.0898V47.7773C721.119 52.8555 722.942 56.9245 726.588 59.9844C729.127 62.0677 731.894 63.1094 734.889 63.1094H744.85C750.709 63.1094 754.745 61.2865 756.959 57.6406C757.74 56.2734 758.131 54.8737 758.131 53.4414C758.131 49.9909 756.406 47.3216 752.955 45.4336C750.676 44.2617 747.975 43.6758 744.85 43.6758H739.869C735.833 43.6758 732.415 45.043 729.615 47.7773C729.225 48.168 728.899 48.526 728.639 48.8516L721.119 43.0898ZM817.311 76.9766H812.33C804.257 76.9766 797.389 74.112 791.725 68.3828C786.321 62.9141 783.619 56.3711 783.619 48.7539V29.0273C783.619 21.0846 786.484 14.3464 792.213 8.8125C797.877 3.47396 804.583 0.804688 812.33 0.804688H817.311C825.383 0.804688 832.252 3.66927 837.916 9.39844C843.32 14.8672 846.021 21.4102 846.021 29.0273V48.7539C846.021 56.6966 843.157 63.4349 837.428 68.9688C831.764 74.3073 825.058 76.9766 817.311 76.9766ZM812.33 64.0859H817.311C821.803 64.0859 825.416 62.0677 828.15 58.0312C830.038 55.2318 830.982 52.1393 830.982 48.7539V29.0273C830.982 23.8841 829.127 19.7826 825.416 16.7227C823.007 14.7044 820.305 13.6953 817.311 13.6953H812.33C807.838 13.6953 804.225 15.681 801.49 19.6523C799.537 22.4518 798.561 25.5768 798.561 29.0273V48.7539C798.561 53.832 800.383 57.901 804.029 60.9609C806.568 63.0443 809.335 64.0859 812.33 64.0859Z"/></svg>