<svg width="618" height="77" viewBox="0 0 618 77" fill="none" xmlns="http://www.w3.org/2000/svg">
<path d="M22.623 60.668L39.2246 12.6211H55.0449L71.6465 60.668L77.3105 1.78125H93.3262L86.5879 63.5977C85.9368 69.1315 83.3327 72.9727 78.7754 75.1211C76.8223 76.0326 74.804 76.4883 72.7207 76.4883C68.2285 76.4883 64.8105 74.7305 62.4668 71.2148C61.8809 70.3685 61.4251 69.4896 61.0996 68.5781L47.1348 27.9531L33.2676 68.5781C31.7702 72.6146 28.873 75.1211 24.5762 76.0977C23.5345 76.3581 22.5254 76.4883 21.5488 76.4883C16.8613 76.4883 13.1829 74.6654 10.5137 71.0195C9.01628 68.8711 8.10482 66.3971 7.7793 63.5977L0.943359 1.78125H16.959L22.623 60.668ZM140.494 76.9766H130.533C122.46 76.9766 115.592 74.112 109.928 68.3828C104.524 62.9141 101.822 56.3711 101.822 48.7539V29.0273C101.822 21.0846 104.687 14.3464 110.416 8.8125C116.08 3.47396 122.786 0.804688 130.533 0.804688H140.494C148.567 0.804688 155.436 3.66927 161.1 9.39844C166.503 14.8672 169.205 21.4102 169.205 29.0273V48.7539C169.205 56.6966 166.34 63.4349 160.611 68.9688C154.947 74.3073 148.242 76.9766 140.494 76.9766ZM130.533 64.0859H140.494C144.986 64.0859 148.6 62.0677 151.334 58.0312C153.222 55.2318 154.166 52.1393 154.166 48.7539V29.0273C154.166 23.8841 152.311 19.7826 148.6 16.7227C146.191 14.7044 143.489 13.6953 140.494 13.6953H130.533C126.041 13.6953 122.428 15.681 119.693 19.6523C117.74 22.4518 116.764 25.5768 116.764 29.0273V48.7539C116.764 53.832 118.587 57.901 122.232 60.9609C124.771 63.0443 127.538 64.0859 130.533 64.0859ZM196.061 14.6719V76H181.119V14.8672C181.119 10.4401 183.007 6.92448 186.783 4.32031C189.322 2.6276 192.122 1.78125 195.182 1.78125H215.396C224.446 1.78125 231.705 4.48307 237.174 9.88672C241.796 14.5091 244.107 20.2057 244.107 26.9766V29.8086C244.107 38.2721 240.755 44.8477 234.049 49.5352C231.51 51.293 228.71 52.6276 225.65 53.5391L245.768 76H227.115L208.561 55.0039H197.037L205.045 42.1133H215.396C221.516 42.1133 225.65 39.9974 227.799 35.7656C228.645 34.0078 229.068 32.0221 229.068 29.8086V26.9766C229.068 21.1172 226.432 17.3086 221.158 15.5508C219.4 14.9648 217.48 14.6719 215.396 14.6719H196.061ZM257.096 1.78125H272.232V32.8359H281.803L300.748 1.78125H317.74L294.205 38.8906L318.814 76H301.725L282.291 45.7266H272.232V76H257.096V1.78125ZM396.451 17.1133L379.85 65.1602H364.029L347.428 17.1133L341.764 76H325.748L332.584 14.1836C333.235 8.64974 335.839 4.77604 340.396 2.5625C342.285 1.71615 344.27 1.29297 346.354 1.29297C350.846 1.29297 354.264 3.01823 356.607 6.46875C357.193 7.3151 357.682 8.22656 358.072 9.20312L371.939 49.8281L385.807 9.20312C387.304 5.16667 390.201 2.66016 394.498 1.68359C395.54 1.42318 396.549 1.29297 397.525 1.29297C402.213 1.29297 405.891 3.11589 408.561 6.76172C410.058 8.91016 410.969 11.3841 411.295 14.1836L418.131 76H402.115L396.451 17.1133ZM476.92 66.1367H444.4L452.408 53.2461H472.428L459.732 16.8203L439.029 76H423.014L444.791 13.8906C447.981 5.23177 452.962 0.869792 459.732 0.804688C466.503 0.869792 471.451 5.23177 474.576 13.8906L496.451 76H480.436L476.92 66.1367ZM526.432 76H511.393V14.8672C511.393 10.5052 513.281 7.02214 517.057 4.41797C519.596 2.66016 522.428 1.78125 525.553 1.78125H547.721V14.6719H526.432V76ZM514.225 1.78125L506.217 14.6719H491.471V1.78125H514.225ZM572.037 45.7266V63.1094H610.318L617.35 76H571.158C566.406 76 562.597 74.2096 559.732 70.6289C557.91 68.2852 556.998 65.7135 556.998 62.9141V14.8672C556.998 10.5052 558.886 7.02214 562.662 4.41797C565.201 2.66016 568.033 1.78125 571.158 1.78125H617.35L610.318 14.6719H572.037V32.8359H607.291V45.7266H572.037Z" fill="#1E1E1E"/>
</svg>
